
<svg width="32" height="32" viewBox="0 0 32 32" fill="none" xmlns="http://www.w3.org/2000/svg">
  <rect width="32" height="32" rx="6" fill="#0f172a"/>
  <rect x="4" y="11" width="7" height="10" rx="1" fill="#ff6b35"/>
  <path d="M6 14h3M6 16h3M6 18h3" stroke="white" stroke-width="0.8" stroke-linecap="round"/>
  <path d="M12 16h3" stroke="#94a3b8" stroke-width="1" stroke-linecap="round"/>
  <path d="M14 14.5l1.5 1.5-1.5 1.5" stroke="#94a3b8" stroke-width="1" stroke-linecap="round" stroke-linejoin="round"/>
  <defs>
    <linearGradient id="g" x1="0%" y1="0%" x2="100%" y2="0%">
      <stop offset="0%" style="stop-color:#ff6b35"/>
      <stop offset="100%" style="stop-color:#2563eb"/>
    </linearGradient>
  </defs>
  <rect x="16" y="10" width="7" height="12" rx="1" fill="url(#g)"/>
  <circle cx="17.5" cy="13" r="0.8" fill="white" opacity="0.8"/>
  <circle cx="19.5" cy="16" r="0.8" fill="white" opacity="0.8"/>
  <circle cx="21.5" cy="19" r="0.8" fill="white" opacity="0.8"/>
  <rect x="24" y="11" width="4" height="10" rx="1" fill="#2563eb"/>
  <path d="M25 14l1 1 1-1M25 18l1-1 1 1M25 16h2" stroke="white" stroke-width="0.6" stroke-linecap="round" stroke-linejoin="round"/>
</svg>