<svg width="64" height="64" viewBox="0 0 64 64" fill="none" xmlns="http://www.w3.org/2000/svg">
  <!-- Icon version: Pipeline symbol only (for favicon and small sizes) -->

  <!-- Background circle for better visibility -->
  <rect width="64" height="64" rx="12" fill="#0f172a"/>

  <!-- Segment 1: Docker Compose (Orange) -->
  <rect x="8" y="22" width="14" height="20" rx="2" fill="#ff6b35"/>
  <path d="M12 27h6M12 32h6M12 37h6" stroke="white" stroke-width="1.5" stroke-linecap="round"/>

  <!-- Connection arrow -->
  <path d="M24 32h6" stroke="#94a3b8" stroke-width="2" stroke-linecap="round"/>
  <path d="M28 29l3 3-3 3" stroke="#94a3b8" stroke-width="2" stroke-linecap="round" stroke-linejoin="round"/>

  <!-- Segment 2: Conversion (Gradient) -->
  <defs>
    <linearGradient id="icon-gradient" x1="0%" y1="0%" x2="100%" y2="0%">
      <stop offset="0%" style="stop-color:#ff6b35;stop-opacity:1" />
      <stop offset="100%" style="stop-color:#2563eb;stop-opacity:1" />
    </linearGradient>
  </defs>
  <rect x="32" y="20" width="14" height="24" rx="2" fill="url(#icon-gradient)"/>
  <circle cx="35" cy="26" r="1.5" fill="white" opacity="0.8"/>
  <circle cx="39" cy="32" r="1.5" fill="white" opacity="0.8"/>
  <circle cx="43" cy="38" r="1.5" fill="white" opacity="0.8"/>

  <!-- Segment 3: K8s Output (Blue) -->
  <rect x="48" y="22" width="8" height="20" rx="2" fill="#2563eb"/>
  <path d="M50 28l2 2 2-2M50 36l2-2 2 2M50 32h4" stroke="white" stroke-width="1.2" stroke-linecap="round" stroke-linejoin="round"/>
</svg>
